<svg width="44" height="19" viewBox="0 0 44 19" fill="none" xmlns="http://www.w3.org/2000/svg">
<path d="M8.13904 2.60191C7.88311 2.92918 7.55475 3.19262 7.17978 3.37152C6.80481 3.55042 6.39345 3.63989 5.97804 3.63291C5.95135 3.2236 6.00582 2.81305 6.1383 2.42486C6.27079 2.03667 6.47869 1.67849 6.75004 1.37091C7.29216 0.734866 8.0602 0.334352 8.89204 0.253906C8.95229 1.10428 8.68262 1.94518 8.13904 2.60191ZM8.88304 3.80191C7.69304 3.73291 6.67004 4.48791 6.10704 4.48791C5.54404 4.48791 4.66604 3.83191 3.72304 3.85391C3.10726 3.87122 2.50686 4.05015 1.98206 4.37275C1.45726 4.69535 1.02652 5.15028 0.733044 5.69191C-0.553956 7.92291 0.399044 11.2339 1.64004 13.0539C2.24904 13.9539 2.97904 14.9429 3.94004 14.9079C4.84704 14.8729 5.20704 14.3079 6.30404 14.3079C7.40104 14.3079 7.72704 14.9079 8.68804 14.8889C9.68104 14.8709 10.306 13.9889 10.915 13.0889C11.3458 12.4504 11.681 11.7523 11.91 11.0169C11.3347 10.7615 10.8456 10.3451 10.5017 9.81796C10.1579 9.29078 9.97389 8.67533 9.97204 8.04591C9.97834 7.48654 10.1254 6.93775 10.3996 6.45016C10.6738 5.96257 11.0663 5.55186 11.541 5.25591C11.242 4.82314 10.8461 4.4661 10.3849 4.21317C9.92361 3.96024 9.40973 3.8184 8.88404 3.79891L8.88304 3.80191ZM15.768 1.28991V14.7959H17.843V10.1779H20.716C21.309 10.2064 21.9014 10.1107 22.4552 9.89709C23.0091 9.68347 23.5123 9.35658 23.9325 8.93734C24.3528 8.51809 24.681 8.01573 24.8959 7.46239C25.1109 6.90905 25.208 6.31693 25.181 5.72391C25.2128 5.13599 25.121 4.54795 24.9117 3.99767C24.7023 3.44738 24.3799 2.94707 23.9654 2.52896C23.5509 2.11085 23.0534 1.78422 22.5049 1.57012C21.9564 1.35603 21.3692 1.25921 20.781 1.28591H15.766L15.768 1.28991ZM17.843 3.05391H20.235C20.6051 3.00387 20.9817 3.03738 21.3371 3.15197C21.6926 3.26656 22.0178 3.45932 22.289 3.71609C22.5601 3.97287 22.7703 4.28713 22.9041 4.63579C23.0379 4.98445 23.0919 5.35865 23.062 5.73091C23.0912 6.10427 23.0366 6.47943 22.9021 6.82898C22.7677 7.17853 22.5569 7.49362 22.2851 7.75125C22.0133 8.00887 21.6873 8.20252 21.3311 8.31803C20.9749 8.43355 20.5973 8.46801 20.226 8.41891H17.841V3.05391H17.843ZM28.968 14.8989C29.5864 14.9151 30.1977 14.7633 30.7367 14.4597C31.2757 14.1561 31.7223 13.7121 32.029 13.1749H32.071V14.7969H33.991V8.07091C33.991 6.12191 32.448 4.86391 30.074 4.86391C27.874 4.86391 26.243 6.13791 26.183 7.88791H28.052C28.1571 7.45942 28.4141 7.08363 28.7753 6.83036C29.1365 6.5771 29.5774 6.46358 30.016 6.51091C31.285 6.51091 31.996 7.11091 31.996 8.21091V8.95391L29.407 9.11091C26.999 9.25691 25.695 10.2539 25.695 11.9869C25.695 13.7369 27.041 14.8979 28.97 14.8979L28.968 14.8989ZM29.526 13.2989C28.42 13.2989 27.716 12.7609 27.716 11.9389C27.716 11.0889 28.394 10.5949 29.689 10.5159L31.989 10.3699V11.1329C31.9774 11.4401 31.9033 11.7418 31.7712 12.0194C31.6391 12.297 31.4518 12.5448 31.2208 12.7476C30.9897 12.9504 30.7197 13.104 30.4273 13.1989C30.1349 13.2939 29.8262 13.3283 29.52 13.2999L29.526 13.2989ZM36.555 18.4739C38.577 18.4739 39.528 17.6929 40.355 15.3269L44.001 4.99391H41.893L39.45 12.9759H39.408L36.965 4.99391H34.796L38.309 14.8319L38.121 15.4319C38.059 15.8422 37.8446 16.2142 37.5207 16.4736C37.1968 16.733 36.787 16.861 36.373 16.8319C36.21 16.8319 35.894 16.8139 35.764 16.7969V18.4189C36.0259 18.4543 36.2898 18.4714 36.554 18.4699L36.555 18.4739Z" fill="white"/>
</svg>
