<svg width="34" height="23" viewBox="0 0 34 23" fill="none" xmlns="http://www.w3.org/2000/svg">
<path d="M0.671021 0.708984V22.017H33.907V0.708984H0.671021ZM12.546 21.377H1.30702V1.34798H33.273V13.554C26.808 17.2132 19.8166 19.852 12.546 21.377ZM3.37202 7.18898H1.95002V12.176H3.37202C4.01666 12.2165 4.653 12.0134 5.15502 11.607C5.43551 11.3722 5.66137 11.079 5.81682 10.7479C5.97227 10.4168 6.05356 10.0558 6.05502 9.68998C6.05879 9.34505 5.99058 9.00311 5.85475 8.68602C5.71893 8.36893 5.51847 8.08364 5.26618 7.84838C5.01389 7.61313 4.71531 7.43307 4.38951 7.3197C4.06371 7.20633 3.71785 7.16215 3.37402 7.18998L3.37202 7.18898ZM4.50702 10.948C4.12913 11.244 3.65182 11.3833 3.17402 11.337H2.92302V8.03698H3.17702C3.41473 8.0096 3.65553 8.03094 3.88471 8.09971C4.1139 8.16849 4.32666 8.28324 4.51002 8.43698C4.68285 8.59417 4.82035 8.78625 4.91344 9.00052C5.00653 9.2148 5.05308 9.44638 5.05002 9.67998C5.05164 9.91558 5.0045 10.149 4.91157 10.3655C4.81864 10.5819 4.68193 10.7769 4.51002 10.938L4.50702 10.948ZM6.50702 7.18898H7.48002V12.176H6.50702V7.18898ZM9.86202 9.10598C9.27802 8.89598 9.11302 8.74698 9.11302 8.47698C9.11302 8.16198 9.41302 7.92298 9.83202 7.92298C9.9861 7.92474 10.1377 7.9617 10.2753 8.03102C10.413 8.10035 10.5329 8.20021 10.626 8.32298L11.135 7.66398C10.7323 7.302 10.2085 7.1043 9.66702 7.10998C9.47007 7.09727 9.27257 7.12445 9.08638 7.1899C8.90019 7.25535 8.72912 7.35773 8.58345 7.49089C8.43778 7.62405 8.32049 7.78525 8.23863 7.96484C8.15676 8.14442 8.11199 8.33868 8.10702 8.53598C8.10702 9.22498 8.42202 9.58398 9.33502 9.91398C9.56954 9.98375 9.79559 10.0793 10.009 10.199C10.098 10.2503 10.1714 10.3247 10.2216 10.4143C10.2717 10.5039 10.2968 10.6053 10.294 10.708C10.2934 10.8039 10.2732 10.8987 10.2347 10.9866C10.1962 11.0745 10.1402 11.1536 10.0701 11.2191C10 11.2846 9.91729 11.3351 9.82701 11.3676C9.73673 11.4001 9.64078 11.4138 9.54502 11.408C9.32302 11.413 9.10433 11.3534 8.91559 11.2364C8.72686 11.1194 8.57622 10.9501 8.48202 10.749L7.85302 11.349C8.02896 11.6476 8.28142 11.8938 8.58431 12.0622C8.8872 12.2306 9.22955 12.3151 9.57602 12.307C9.79979 12.3225 10.0243 12.2911 10.2353 12.2148C10.4462 12.1384 10.6388 12.0188 10.8007 11.8636C10.9627 11.7085 11.0904 11.5211 11.1757 11.3137C11.261 11.1062 11.302 10.8832 11.296 10.659C11.296 9.86498 10.966 9.50598 9.85702 9.10098L9.86202 9.10598ZM11.614 9.68998C11.6114 10.0355 11.6781 10.378 11.81 10.6973C11.9419 11.0166 12.1365 11.3063 12.3822 11.5492C12.6279 11.7921 12.9197 11.9833 13.2405 12.1116C13.5613 12.2398 13.9046 12.3025 14.25 12.296C14.6714 12.3002 15.0876 12.2024 15.463 12.011V10.859C15.319 11.0294 15.1401 11.167 14.9385 11.2625C14.7369 11.3581 14.5171 11.4094 14.294 11.413C14.0681 11.4196 13.8432 11.3792 13.6337 11.2943C13.4242 11.2094 13.2346 11.0819 13.0769 10.92C12.9193 10.758 12.797 10.565 12.7178 10.3533C12.6386 10.1415 12.6043 9.91567 12.617 9.68998C12.6096 9.46924 12.646 9.24921 12.7243 9.04268C12.8026 8.83615 12.9212 8.64724 13.0731 8.48693C13.2251 8.32662 13.4074 8.1981 13.6094 8.10884C13.8114 8.01958 14.0292 7.97136 14.25 7.96698C14.4813 7.96851 14.7095 8.02017 14.9189 8.1184C15.1284 8.21663 15.314 8.3591 15.463 8.53598V7.38398C15.0939 7.18647 14.6816 7.08341 14.263 7.08398C13.917 7.07896 13.5735 7.14257 13.2523 7.27113C12.931 7.39969 12.6384 7.59066 12.3915 7.833C12.1445 8.07533 11.948 8.36422 11.8133 8.68296C11.6787 9.0017 11.6086 9.34397 11.607 9.68998H11.614ZM21.17 9.71998C21.17 10.2562 21.011 10.7803 20.7131 11.2261C20.4152 11.672 19.9918 12.0194 19.4965 12.2246C19.0011 12.4298 18.456 12.4835 17.9301 12.3789C17.4042 12.2743 16.9212 12.0161 16.5421 11.6369C16.1629 11.2578 15.9047 10.7748 15.8001 10.2489C15.6955 9.72299 15.7492 9.1779 15.9544 8.68253C16.1596 8.18716 16.507 7.76376 16.9529 7.46587C17.3987 7.16798 17.9228 7.00898 18.459 7.00898C19.1773 7.01004 19.8659 7.29613 20.3734 7.80443C20.8809 8.31273 21.166 9.00167 21.166 9.71998H21.17ZM23.192 10.543L21.855 7.18898H20.792L22.919 12.311H23.444L25.6 7.18898H24.536L23.192 10.543ZM26.038 12.176H28.794V11.338H27.007V9.98998H28.73V9.15098H27.007V8.04298H28.79V7.18898H26.034L26.038 12.176ZM31.52 10.076C31.8533 10.0303 32.1567 9.85923 32.3681 9.59758C32.5796 9.33593 32.6833 9.00346 32.658 8.66798C32.658 7.72398 32.014 7.18498 30.891 7.18498H29.434V12.172H30.407V10.184H30.542L31.89 12.176H33.09L31.517 10.076H31.52ZM30.696 9.49198H30.407V7.98298H30.707C31.321 7.98298 31.651 8.23698 31.651 8.71698C31.651 9.22598 31.322 9.49598 30.693 9.49598L30.696 9.49198Z" fill="white"/>
</svg>
