<svg width="43" height="43" viewBox="0 0 43 43" fill="none" xmlns="http://www.w3.org/2000/svg">
<path d="M21.2431 10.783C19.108 10.783 17.0209 11.4161 15.2457 12.6023C13.4704 13.7884 12.0868 15.4744 11.2698 17.4469C10.4527 19.4194 10.2389 21.59 10.6555 23.684C11.072 25.778 12.1001 27.7015 13.6098 29.2112C15.1195 30.7209 17.043 31.749 19.1371 32.1656C21.2311 32.5821 23.4016 32.3683 25.3741 31.5513C27.3466 30.7342 29.0326 29.3506 30.2188 27.5754C31.4049 25.8001 32.0381 23.713 32.0381 21.578C32.0403 20.1597 31.7626 18.755 31.2209 17.4443C30.6792 16.1336 29.8841 14.9426 28.8813 13.9398C27.8784 12.9369 26.6875 12.1419 25.3768 11.6001C24.066 11.0584 22.6613 10.7807 21.2431 10.783ZM21.2431 28.596C19.855 28.596 18.4982 28.1844 17.3441 27.4132C16.19 26.6421 15.2904 25.546 14.7593 24.2637C14.2281 22.9813 14.0891 21.5702 14.3599 20.2088C14.6307 18.8475 15.2991 17.597 16.2806 16.6155C17.2621 15.634 18.5126 14.9656 19.8739 14.6948C21.2353 14.424 22.6464 14.563 23.9287 15.0942C25.2111 15.6254 26.3072 16.5249 27.0783 17.679C27.8495 18.8331 28.2611 20.19 28.2611 21.578C28.2576 23.4382 27.5171 25.2213 26.2017 26.5367C24.8863 27.8521 23.1033 28.5926 21.2431 28.596ZM34.9981 10.341C34.9981 10.839 34.8504 11.3258 34.5737 11.7399C34.297 12.154 33.9038 12.4767 33.4436 12.6673C32.9835 12.8579 32.4773 12.9078 31.9888 12.8106C31.5004 12.7134 31.0517 12.4736 30.6996 12.1215C30.3474 11.7693 30.1076 11.3207 30.0104 10.8322C29.9133 10.3438 29.9631 9.83749 30.1537 9.37739C30.3443 8.91729 30.667 8.52403 31.0811 8.24735C31.4952 7.97066 31.982 7.82299 32.4801 7.82299C32.8109 7.8222 33.1387 7.88679 33.4446 8.01305C33.7504 8.13931 34.0283 8.32475 34.2623 8.55873C34.4963 8.7927 34.6817 9.0706 34.808 9.37645C34.9343 9.68231 34.9988 10.0101 34.9981 10.341ZM42.1481 12.896C41.9881 9.52299 41.2181 6.53599 38.7481 4.07399C36.2781 1.61199 33.2991 0.841987 29.9261 0.673987C26.4501 0.473987 16.0261 0.473987 12.5541 0.673987C9.19105 0.833987 6.20305 1.60399 3.73205 4.06599C1.26105 6.52799 0.499054 9.51399 0.330054 12.888C0.130054 16.364 0.130054 26.788 0.330054 30.259C0.490054 33.632 1.26005 36.619 3.73005 39.081C6.20005 41.543 9.17905 42.313 12.5521 42.481C16.0281 42.681 26.4521 42.681 29.9241 42.481C33.2971 42.321 36.284 41.551 38.7461 39.081C41.2081 36.611 41.9781 33.632 42.1461 30.259C42.3461 26.783 42.3461 16.373 42.1461 12.897L42.1481 12.896ZM37.6561 33.988C37.2988 34.8931 36.7594 35.7152 36.0713 36.4032C35.3832 37.0913 34.5612 37.6307 33.6561 37.988C30.8841 39.088 24.3081 38.834 21.2451 38.834C18.1821 38.834 11.5961 39.078 8.83405 37.988C7.92894 37.6307 7.10687 37.0913 6.4188 36.4032C5.73073 35.7152 5.19134 34.8931 4.83405 33.988C3.73105 31.217 3.98705 24.64 3.98705 21.578C3.98705 18.516 3.74305 11.929 4.83305 9.16699C5.19034 8.26188 5.72973 7.4398 6.4178 6.75174C7.10587 6.06367 7.92794 5.52427 8.83305 5.16699C11.6051 4.06699 18.1811 4.32099 21.2441 4.32099C24.3071 4.32099 30.8931 4.07699 33.6551 5.16699C34.5602 5.52427 35.3822 6.06367 36.0703 6.75174C36.7584 7.4398 37.2978 8.26188 37.6551 9.16699C38.7551 11.939 38.5011 18.515 38.5011 21.578C38.5011 24.641 38.7561 31.226 37.6561 33.988Z" fill="white"/>
</svg>
