<svg width="44" height="28" viewBox="0 0 44 28" fill="none" xmlns="http://www.w3.org/2000/svg">
<path d="M20.8139 24.7379C20.9199 24.8279 21.0329 24.9169 21.1449 25.0049C19.1024 26.3627 16.7298 27.1411 14.2798 27.2572C11.8299 27.3733 9.39434 26.8228 7.23249 25.6644C5.07064 24.5059 3.26345 22.7828 2.00335 20.6785C0.743258 18.5743 0.0774341 16.1677 0.0767827 13.715C0.0761313 11.2623 0.740677 8.85539 1.99966 6.75048C3.25863 4.64557 5.06491 2.9215 7.22614 1.76187C9.38738 0.602244 11.8227 0.050464 14.2726 0.165288C16.7226 0.280112 19.0956 1.05724 21.1389 2.41393C21.0324 2.49787 20.9322 2.58945 20.8389 2.68793C19.2566 4.05535 17.9868 5.74709 17.1157 7.64839C16.2446 9.54969 15.7926 11.6161 15.7903 13.7074C15.788 15.7988 16.2356 17.8662 17.1025 19.7694C17.9694 21.6726 19.2346 23.3671 20.8139 24.7379ZM30.3969 0.149926C27.726 0.144933 25.1137 0.932878 22.8909 2.41393C22.9974 2.49787 23.0977 2.58945 23.1909 2.68793C24.7733 4.05535 26.0431 5.74709 26.9142 7.64839C27.7853 9.54969 28.2373 11.6161 28.2396 13.7074C28.2418 15.7988 27.7943 17.8662 26.9274 19.7694C26.0604 21.6726 24.7943 23.3671 23.2149 24.7379C23.1089 24.8279 22.9959 24.9169 22.8839 25.0049C24.6462 26.1768 26.6582 26.92 28.7591 27.1751C30.86 27.4301 32.9915 27.19 34.9829 26.4738C36.9744 25.7577 38.7706 24.5854 40.228 23.0508C41.6853 21.5162 42.7632 19.6618 43.3756 17.636C43.9879 15.6102 44.1177 13.4692 43.7544 11.3843C43.3912 9.29937 42.5451 7.32839 41.2838 5.62901C40.0224 3.92963 38.3809 2.54902 36.4905 1.59762C34.6001 0.646223 32.5133 0.150437 30.3969 0.149926ZM22.0149 3.05693C21.8389 3.19393 21.6689 3.33093 21.5029 3.47893C20.0385 4.75096 18.8642 6.32258 18.0594 8.08754C17.2547 9.8525 16.8382 11.7697 16.8382 13.7094C16.8382 15.6492 17.2547 17.5664 18.0594 19.3313C18.8642 21.0963 20.0385 22.6679 21.5029 23.9399C21.6679 24.0859 21.8409 24.2289 22.0149 24.3639C22.1909 24.2289 22.3609 24.0859 22.5269 23.9399C23.9914 22.6679 25.1657 21.0963 25.9704 19.3313C26.7752 17.5664 27.1916 15.6492 27.1916 13.7094C27.1916 11.7697 26.7752 9.8525 25.9704 8.08754C25.1657 6.32258 23.9914 4.75096 22.5269 3.47893C22.3619 3.33293 22.1899 3.19493 22.0149 3.05693Z" fill="white"/>
</svg>
