<svg width="40" height="40" viewBox="0 0 40 40" fill="none" xmlns="http://www.w3.org/2000/svg">
<path d="M39.999 19.813C39.998 22.8924 39.2738 25.9286 37.8846 28.6769C36.4955 31.4252 34.4802 33.8088 32.0013 35.6357C29.5223 37.4627 26.6489 38.6818 23.6125 39.1949C20.5761 39.708 17.4616 39.5008 14.52 38.59C15.5531 36.985 16.3739 35.2529 16.962 33.437C17.2 32.517 18.183 28.76 18.183 28.76C18.6847 29.4824 19.3594 30.0676 20.1455 30.4622C20.9315 30.8568 21.8039 31.0482 22.683 31.019C28.613 31.019 32.883 25.565 32.883 18.787C32.883 12.294 27.583 7.435 20.762 7.435C12.284 7.43799 7.77798 13.13 7.77798 19.338C7.77798 22.224 9.31598 25.815 11.766 26.957C12.139 27.131 12.337 27.057 12.424 26.695C12.487 26.425 12.824 25.086 12.971 24.467C12.9989 24.3695 13.0011 24.2664 12.9774 24.1678C12.9538 24.0691 12.9051 23.9783 12.836 23.904C11.8951 22.5964 11.3854 21.0279 11.378 19.417C11.3739 18.2659 11.6034 17.126 12.0527 16.0663C12.502 15.0065 13.1616 14.0489 13.9917 13.2515C14.8217 12.454 15.805 11.8333 16.8819 11.4269C17.9588 11.0205 19.107 10.8368 20.257 10.887C25.085 10.887 28.47 14.177 28.47 18.887C28.47 24.206 25.783 27.893 22.286 27.893C21.8398 27.9156 21.3946 27.8331 20.9861 27.6521C20.5777 27.4711 20.2175 27.1967 19.9345 26.851C19.6516 26.5053 19.4538 26.098 19.3571 25.6618C19.2605 25.2257 19.2676 24.7729 19.378 24.34C19.933 22.001 21.003 19.48 21.003 17.792C21.0456 17.442 21.0127 17.0868 20.9066 16.7506C20.8004 16.4143 20.6235 16.1047 20.3877 15.8425C20.1519 15.5803 19.8626 15.3717 19.5394 15.2307C19.2162 15.0897 18.8666 15.0196 18.514 15.025C16.54 15.025 14.954 17.062 14.954 19.797C14.9409 20.7999 15.141 21.7942 15.541 22.714C15.541 22.714 13.599 30.943 13.241 32.481C12.9368 34.3487 12.9129 36.2513 13.17 38.126C9.83893 36.8224 6.9266 34.6348 4.74658 31.7988C2.56657 28.9628 1.20147 25.5858 0.798286 22.0316C0.395102 18.4773 0.969107 14.8804 2.45849 11.6282C3.94788 8.37593 6.29621 5.59159 9.25062 3.57496C12.205 1.55833 15.6536 0.385826 19.2249 0.183704C22.7963 -0.0184187 26.3551 0.757499 29.5182 2.4279C32.6812 4.09831 35.3287 6.59991 37.1756 9.66334C39.0224 12.7268 39.9986 16.2359 39.999 19.813Z" fill="white"/>
</svg>
