<svg width="68" height="30" viewBox="0 0 68 30" fill="none" xmlns="http://www.w3.org/2000/svg">
<path d="M12.28 14.634L12.88 21.396L12.28 28.502C12.2723 28.6209 12.2215 28.733 12.1373 28.8172C12.053 28.9015 11.941 28.9522 11.822 28.96C11.7036 28.9563 11.5915 28.9063 11.5097 28.8206C11.4279 28.7349 11.3831 28.6204 11.385 28.502L10.802 21.396L11.385 14.634C11.3876 14.5189 11.4344 14.4092 11.5159 14.3278C11.5973 14.2464 11.7069 14.1996 11.822 14.197C11.9371 14.2058 12.0455 14.2541 12.129 14.3338C12.2125 14.4134 12.2658 14.5195 12.28 14.634ZM14.506 9.89001C14.3694 9.89403 14.2395 9.9501 14.1428 10.0468C14.0461 10.1434 13.9901 10.2734 13.986 10.41L13.466 21.396L13.986 28.502C13.9901 28.6386 14.0461 28.7686 14.1428 28.8652C14.2395 28.9619 14.3694 29.018 14.506 29.022C14.6395 29.0168 14.7655 28.9594 14.857 28.8621C14.9484 28.7648 14.998 28.6355 14.995 28.502L15.595 21.396L14.995 10.41C14.998 10.2767 14.9486 10.1475 14.8573 10.0503C14.7661 9.95302 14.6403 9.89547 14.507 9.89001H14.506ZM17.159 7.38301C17.0092 7.38079 16.8645 7.43714 16.7556 7.54005C16.6467 7.64296 16.5823 7.78431 16.576 7.934L16.119 21.459L16.577 28.513C16.5833 28.6627 16.6477 28.8041 16.7566 28.907C16.8655 29.0099 17.0102 29.0662 17.16 29.064C17.2325 29.0644 17.3043 29.0504 17.3714 29.0229C17.4384 28.9953 17.4993 28.9548 17.5505 28.9035C17.6018 28.8523 17.6424 28.7914 17.6699 28.7243C17.6975 28.6573 17.7114 28.5855 17.711 28.513L18.262 21.459L17.711 7.934C17.7114 7.86154 17.6975 7.78971 17.6699 7.72268C17.6424 7.65565 17.6018 7.59475 17.5505 7.5435C17.4993 7.49226 17.4384 7.45169 17.3714 7.42414C17.3043 7.39659 17.2315 7.38261 17.159 7.38301ZM1.44004 17.433C1.29404 17.433 1.21104 17.547 1.18004 17.693L0.69104 21.396L1.18004 25.037C1.21104 25.183 1.29404 25.297 1.44004 25.297C1.58604 25.297 1.66904 25.183 1.70004 25.037L2.28304 21.396L1.70004 17.696C1.66904 17.55 1.58604 17.436 1.44004 17.436V17.433ZM3.89104 15.154C3.85682 15.1537 3.82289 15.1603 3.79123 15.1733C3.75956 15.1862 3.7308 15.2054 3.7066 15.2296C3.6824 15.2538 3.66326 15.2825 3.65029 15.3142C3.63732 15.3459 3.63077 15.3798 3.63104 15.414L2.96504 21.396L3.63104 27.232C3.62759 27.2685 3.63171 27.3053 3.64315 27.3401C3.65459 27.3749 3.67309 27.407 3.6975 27.4343C3.72191 27.4616 3.7517 27.4836 3.78501 27.4988C3.81831 27.5141 3.85441 27.5223 3.89104 27.523C3.96199 27.5196 4.02961 27.4919 4.08258 27.4445C4.13556 27.3972 4.17067 27.3331 4.18204 27.263L4.93104 21.395L4.19104 15.419C4.17967 15.3489 4.14456 15.2848 4.09158 15.2375C4.03861 15.1901 3.97099 15.1624 3.90004 15.159L3.89104 15.154ZM6.52304 13.968C6.43348 13.9724 6.34875 14.0099 6.28535 14.0733C6.22194 14.1367 6.1844 14.2214 6.18004 14.311L5.58004 21.396L6.18004 28.241C6.19168 28.3259 6.23207 28.4043 6.29448 28.4631C6.35689 28.5219 6.43756 28.5575 6.52304 28.564C6.60862 28.5637 6.69063 28.5296 6.75114 28.4691C6.81166 28.4086 6.84578 28.3266 6.84604 28.241L7.56404 21.396L6.84604 14.311C6.84792 14.2671 6.84099 14.2233 6.82567 14.1822C6.81036 14.141 6.78696 14.1034 6.75686 14.0714C6.72675 14.0394 6.69056 14.0138 6.6504 13.9961C6.61025 13.9783 6.56694 13.9688 6.52304 13.968ZM9.15504 13.739C9.10546 13.7378 9.05614 13.7466 9.01009 13.765C8.96403 13.7834 8.9222 13.811 8.88713 13.8461C8.85205 13.8812 8.82448 13.923 8.80607 13.9691C8.78766 14.0151 8.7788 14.0644 8.78004 14.114L8.18004 21.396L8.78004 28.45C8.7788 28.4996 8.78766 28.5489 8.80607 28.595C8.82448 28.641 8.85205 28.6828 8.88713 28.7179C8.9222 28.753 8.96403 28.7806 9.01009 28.799C9.05614 28.8174 9.10546 28.8262 9.15504 28.825C9.25702 28.8235 9.35485 28.7844 9.42978 28.7152C9.5047 28.646 9.55144 28.5515 9.56104 28.45L10.227 21.396L9.56104 14.114C9.55153 14.0131 9.50535 13.9193 9.43127 13.8501C9.35718 13.781 9.26033 13.7415 9.15904 13.739H9.15504ZM34.273 2.20201C34.1445 2.11222 33.9927 2.06151 33.836 2.05601C33.625 2.05656 33.42 2.12687 33.253 2.25601C33.0544 2.43767 32.9319 2.68774 32.91 2.95601V3.03901L32.567 21.419L32.744 24.8L32.921 28.1C32.935 28.3381 33.038 28.5623 33.2095 28.7281C33.381 28.8939 33.6086 28.9891 33.847 28.995C34.084 28.9937 34.3109 28.899 34.4785 28.7314C34.646 28.5639 34.7407 28.337 34.742 28.1L35.148 21.421L34.741 2.951C34.7256 2.79866 34.6754 2.6519 34.5942 2.52204C34.5131 2.39218 34.4032 2.28269 34.273 2.20201ZM31.491 3.79401C31.3541 3.70534 31.196 3.65493 31.033 3.64801C30.8698 3.65338 30.7113 3.70392 30.575 3.79401C30.4585 3.86951 30.363 3.97331 30.2974 4.09572C30.2318 4.21812 30.1983 4.35515 30.2 4.49401L30.169 4.67101L29.878 21.4C29.878 21.4 29.878 21.431 30.201 28.225V28.256C30.2027 28.4344 30.2651 28.6069 30.378 28.745C30.4595 28.8434 30.5611 28.9231 30.676 28.9788C30.7909 29.0346 30.9164 29.065 31.044 29.068C31.2649 29.061 31.4742 28.9677 31.627 28.808C31.7125 28.7375 31.7804 28.6482 31.8255 28.547C31.8706 28.4459 31.8917 28.3357 31.887 28.225L31.918 27.525L32.241 21.425L31.901 4.491C31.8902 4.35135 31.8481 4.21592 31.7778 4.09475C31.7075 3.97358 31.6109 3.86977 31.495 3.79101L31.491 3.79401ZM19.906 6.135C19.7434 6.143 19.5902 6.21354 19.4784 6.33188C19.3666 6.45022 19.3048 6.6072 19.306 6.77001L18.848 21.397L19.306 28.388C19.306 28.5522 19.3713 28.7096 19.4873 28.8257C19.6034 28.9418 19.7609 29.007 19.925 29.007C20.0892 29.007 20.2467 28.9418 20.3627 28.8257C20.4788 28.7096 20.544 28.5522 20.544 28.388L21.064 21.397L20.541 6.76901C20.5367 6.60205 20.4684 6.44313 20.3502 6.32512C20.232 6.20712 20.073 6.13905 19.906 6.135ZM59.091 12.668C57.9987 12.6696 56.9173 12.8853 55.908 13.303C55.5819 9.71226 53.9258 6.37297 51.2647 3.94018C48.6036 1.50739 45.1296 0.156675 41.524 0.153006C39.7336 0.145876 37.958 0.477717 36.291 1.13101C35.656 1.36001 35.48 1.589 35.48 2.088V28.065C35.4848 28.3069 35.5789 28.5384 35.7441 28.7151C35.9093 28.8917 36.134 29.0011 36.375 29.022H59.085C61.2537 29.0233 63.3341 28.1631 64.8685 26.6306C66.4029 25.098 67.2657 23.0187 67.267 20.85C67.2684 18.6813 66.4081 16.601 64.8756 15.0665C63.343 13.5321 61.2637 12.6693 59.095 12.668H59.091ZM28.229 6.39501C28.0152 6.39886 27.8111 6.48554 27.6598 6.6368C27.5086 6.78807 27.4219 6.99212 27.418 7.20601L27.075 21.427L27.418 28.252C27.4282 28.4609 27.5179 28.6581 27.6686 28.8031C27.8194 28.9481 28.0199 29.03 28.229 29.032C28.3317 29.0329 28.4336 29.0134 28.5286 28.9745C28.6237 28.9357 28.71 28.8782 28.7827 28.8056C28.8553 28.733 28.9127 28.6467 28.9516 28.5516C28.9904 28.4565 29.01 28.3547 29.009 28.252L29.415 21.427L29.009 7.20601C29.012 6.99536 28.9318 6.79204 28.7857 6.6402C28.6397 6.48836 28.4396 6.40025 28.229 6.39501ZM22.653 5.58401C22.4738 5.59417 22.3053 5.6722 22.1815 5.80223C22.0578 5.93226 21.9883 6.10453 21.987 6.28401L21.581 21.396L21.987 28.356C21.9938 28.5322 22.0685 28.699 22.1956 28.8213C22.3227 28.9436 22.4922 29.0119 22.6685 29.0119C22.8449 29.0119 23.0144 28.9436 23.1415 28.8213C23.2685 28.699 23.3433 28.5322 23.35 28.356L23.808 21.396L23.35 6.28001C23.342 6.09695 23.2656 5.92355 23.1361 5.79398C23.0065 5.66442 22.8331 5.58808 22.65 5.58001L22.653 5.58401ZM25.431 5.93801C25.3366 5.93734 25.2429 5.95546 25.1555 5.99131C25.0681 6.02715 24.9887 6.08002 24.9219 6.14682C24.8551 6.21363 24.8022 6.29304 24.7663 6.38045C24.7305 6.46787 24.7124 6.56153 24.713 6.65601L24.307 21.398L24.713 28.306C24.7169 28.4952 24.7938 28.6756 24.9276 28.8095C25.0614 28.9433 25.2418 29.0202 25.431 29.024C25.6214 29.0237 25.8039 28.948 25.9384 28.8134C26.073 28.6788 26.1488 28.4963 26.149 28.306L26.586 21.398L26.149 6.65601C26.1507 6.56127 26.1332 6.46717 26.0977 6.37933C26.0622 6.29148 26.0094 6.21168 25.9424 6.14468C25.8754 6.07768 25.7956 6.02486 25.7077 5.98935C25.6199 5.95384 25.5258 5.93638 25.431 5.93801Z" fill="white"/>
</svg>
