<svg width="44" height="44" viewBox="0 0 44 44" fill="none" xmlns="http://www.w3.org/2000/svg">
<path d="M21.629 0.525024C17.3819 0.525024 13.2302 1.78443 9.69883 4.14398C6.16747 6.50353 3.41509 9.85725 1.78975 13.781C0.1644 17.7049 -0.260915 22.0225 0.567583 26.188C1.39608 30.3535 3.44118 34.1799 6.44427 37.1831C9.44737 40.1863 13.2736 42.2316 17.4391 43.0603C21.6045 43.889 25.9222 43.4639 29.8461 41.8387C33.77 40.2135 37.1238 37.4613 39.4835 33.9301C41.8432 30.3988 43.1028 26.2471 43.103 22C43.1015 16.3052 40.8385 10.844 36.8118 6.81702C32.785 2.79005 27.3239 0.52688 21.629 0.525024ZM30.349 32.125C30.0156 32.117 29.6925 32.0082 29.422 31.813C24.022 28.557 17.732 28.419 11.522 29.692C11.1866 29.7993 10.8417 29.8746 10.492 29.917C10.3116 29.9197 10.1325 29.8862 9.96535 29.8184C9.79816 29.7506 9.64628 29.6499 9.51871 29.5224C9.39114 29.3948 9.29047 29.2429 9.22268 29.0757C9.15488 28.9085 9.12134 28.7294 9.12404 28.549C9.09965 28.2024 9.20768 27.8595 9.42633 27.5894C9.64497 27.3193 9.95794 27.1423 10.302 27.094C17.395 25.524 24.642 25.663 30.825 29.363C31.0931 29.4884 31.3168 29.6921 31.4668 29.9472C31.6167 30.2023 31.6858 30.4968 31.665 30.792C31.6684 30.9666 31.6367 31.14 31.572 31.3021C31.5073 31.4642 31.4107 31.6118 31.2881 31.736C31.1654 31.8602 31.0192 31.9586 30.8579 32.0255C30.6966 32.0923 30.5236 32.1261 30.349 32.125ZM32.678 26.445C32.2969 26.421 31.9292 26.2953 31.613 26.081C25.3085 22.6144 17.9132 21.7019 10.955 23.532C10.6248 23.6576 10.2776 23.7335 9.92504 23.757C9.47956 23.7568 9.0524 23.5797 8.73739 23.2647C8.42239 22.9497 8.2453 22.5225 8.24504 22.077C8.2137 21.6667 8.33223 21.259 8.57864 20.9295C8.82506 20.5999 9.18264 20.371 9.58504 20.285C12.335 19.4778 15.1891 19.0808 18.055 19.107C23.4225 19.0401 28.7114 20.3998 33.381 23.047C33.6908 23.207 33.9476 23.4532 34.1205 23.7559C34.2933 24.0587 34.3748 24.405 34.355 24.753C34.3564 24.9744 34.3139 25.1938 34.23 25.3987C34.1461 25.6036 34.0226 25.7898 33.8664 25.9467C33.7103 26.1036 33.5246 26.2281 33.3201 26.3129C33.1156 26.3978 32.8964 26.4413 32.675 26.441L32.678 26.445ZM35.362 19.845C34.9643 19.8465 34.5753 19.7287 34.245 19.507C28.08 15.826 17.055 14.943 9.92204 16.934C9.56214 17.0618 9.1862 17.1389 8.80504 17.163C8.53723 17.1655 8.27165 17.1142 8.02405 17.012C7.77646 16.9099 7.55189 16.7591 7.36368 16.5686C7.17547 16.378 7.02745 16.1516 6.92839 15.9028C6.82934 15.654 6.78127 15.3878 6.78704 15.12C6.76551 14.6552 6.90307 14.1969 7.17704 13.8208C7.451 13.4446 7.84501 13.1731 8.29404 13.051C11.6059 12.1328 15.0315 11.6897 18.468 11.735C24.789 11.735 31.413 13.051 36.253 15.874C36.6115 16.0537 36.9087 16.3354 37.1075 16.6836C37.3062 17.0318 37.3976 17.431 37.37 17.831C37.3716 18.0957 37.3208 18.3581 37.2205 18.6031C37.1202 18.848 36.9724 19.0707 36.7857 19.2583C36.5989 19.4459 36.3769 19.5947 36.1324 19.6961C35.8879 19.7974 35.6257 19.8494 35.361 19.849L35.362 19.845Z" fill="white"/>
</svg>
