<svg width="30" height="35" viewBox="0 0 30 35" fill="none" xmlns="http://www.w3.org/2000/svg">
<path d="M15.811 0.848984C17.652 0.820984 19.483 0.834984 21.311 0.820984C21.3678 3.01863 22.2475 5.11489 23.776 6.69498C25.4294 8.18222 27.5341 9.07168 29.753 9.22098V14.898C27.7084 14.8486 25.6953 14.3839 23.836 13.532C23.0433 13.1535 22.2805 12.7156 21.554 12.222C21.54 16.336 21.568 20.449 21.526 24.549C21.4189 26.5393 20.7611 28.4607 19.626 30.099C18.6896 31.4527 17.448 32.5672 16.0016 33.3527C14.5551 34.1382 12.9443 34.5727 11.299 34.621C9.28161 34.7115 7.2823 34.2054 5.55098 33.166C4.12592 32.3191 2.91885 31.1504 2.02633 29.7534C1.1338 28.3565 0.580602 26.77 0.410976 25.121C0.382976 24.421 0.368976 23.712 0.396976 23.021C0.540739 21.5763 0.979624 20.1764 1.68644 18.9082C2.39326 17.64 3.35295 16.5305 4.50607 15.6483C5.65919 14.7661 6.98117 14.1301 8.39011 13.7796C9.79905 13.4292 11.2649 13.3718 12.697 13.611C12.725 15.696 12.641 17.781 12.641 19.866C12.0398 19.6552 11.4029 19.5653 10.7669 19.6014C10.1309 19.6376 9.50833 19.7991 8.93495 20.0767C8.36157 20.3543 7.84871 20.7424 7.42586 21.2189C7.003 21.6954 6.67849 22.2507 6.47098 22.853C6.24937 23.5872 6.18129 24.3593 6.27098 25.121C6.4554 26.2817 7.05927 27.3344 7.96812 28.0796C8.87696 28.8248 10.0276 29.2106 11.202 29.164C11.9894 29.1404 12.7586 28.9206 13.4396 28.5246C14.1206 28.1285 14.692 27.5687 15.102 26.896C15.4161 26.4543 15.6148 25.9411 15.68 25.403C15.821 22.881 15.765 20.374 15.78 17.852C15.794 12.175 15.766 6.51198 15.808 0.851984L15.811 0.848984Z" fill="white"/>
</svg>
