<svg width="38" height="31" viewBox="0 0 38 31" fill="none" xmlns="http://www.w3.org/2000/svg">
<path d="M33.506 8.295C33.529 8.623 33.529 8.951 33.529 9.279C33.529 19.279 25.914 30.812 11.996 30.812C7.87568 30.8228 3.83991 29.6432 0.374023 27.415C0.981002 27.482 1.59138 27.5133 2.20202 27.509C5.6097 27.5187 8.92121 26.3797 11.602 24.276C10.0228 24.2471 8.49197 23.7258 7.22338 22.7847C5.9548 21.8437 5.01178 20.53 4.52602 19.027C4.99875 19.1018 5.47643 19.1409 5.95502 19.144C6.62723 19.142 7.2965 19.0553 7.94702 18.886C6.23236 18.5403 4.69037 17.6114 3.58321 16.2572C2.47606 14.903 1.8721 13.2072 1.87402 11.458V11.364C2.92272 11.9494 4.0949 12.2787 5.29502 12.325C3.68845 11.2539 2.55127 9.60997 2.11565 7.72886C1.68003 5.84774 1.97882 3.87129 2.95102 2.203C4.85195 4.54289 7.22347 6.45711 9.91178 7.82151C12.6001 9.18591 15.5452 9.97002 18.556 10.123C18.4347 9.55289 18.372 8.97187 18.369 8.389C18.3699 6.87051 18.8271 5.38732 19.6813 4.13188C20.5355 2.87644 21.7473 1.90672 23.1595 1.34853C24.5717 0.790342 26.119 0.669461 27.6008 1.00157C29.0825 1.33368 30.4302 2.10345 31.469 3.211C33.1628 2.88411 34.7869 2.26559 36.269 1.383C35.7048 3.13199 34.5218 4.61505 32.942 5.554C34.4449 5.38309 35.9138 4.98839 37.3 4.383C36.2643 5.89104 34.9816 7.21359 33.506 8.295Z" fill="white"/>
</svg>
