<svg width="56" height="18" viewBox="0 0 56 18" fill="none" xmlns="http://www.w3.org/2000/svg">
<path d="M40.2461 1.6711C38.976 1.20864 37.6337 0.976337 36.2821 0.985102C31.9081 0.985102 28.8221 3.1851 28.7991 6.3491C28.7721 8.6721 30.9991 9.9801 32.6741 10.7591C34.3981 11.5591 34.9741 12.0591 34.9741 12.7751C34.9631 13.8621 33.5961 14.3541 32.3271 14.3541C30.8884 14.3947 29.4598 14.1032 28.1521 13.5021L27.6081 13.2491L26.9911 16.8891C28.5816 17.4542 30.2571 17.743 31.9451 17.7431C36.5941 17.7431 39.6331 15.5541 39.6691 12.1871C39.7051 10.3351 38.5071 8.9301 35.9771 7.7731C34.4421 7.0211 33.4851 6.5181 33.4851 5.7551C33.4851 5.0811 34.3031 4.3611 36.0111 4.3611C37.1471 4.33394 38.2762 4.54585 39.3251 4.9831L39.7351 5.1681L40.3521 1.6511L40.2451 1.6741L40.2461 1.6711ZM51.5971 1.2841H48.1801C47.6983 1.22181 47.2095 1.31988 46.7891 1.56316C46.3687 1.80644 46.0401 2.1814 45.8541 2.6301L39.2821 17.5131H43.9311L44.8601 15.0761H50.5321C50.6711 15.6451 51.0791 17.5091 51.0791 17.5091H55.1791L51.5981 1.2791L51.5971 1.2841ZM22.5081 1.1471H26.9381L24.1711 17.3851H19.7421L22.5081 1.1421V1.1471ZM11.2581 10.0971L11.7181 12.3521L16.0481 1.2841H20.7381L13.7701 17.4901H9.09106L5.26406 3.7641C5.20243 3.53782 5.05546 3.34425 4.85406 3.2241C3.47776 2.5093 2.01788 1.96848 0.508057 1.6141L0.565057 1.2721H7.69706C8.14196 1.21962 8.59081 1.33009 8.96054 1.58307C9.33026 1.83604 9.59582 2.2144 9.70806 2.6481L11.2621 10.1021V10.0951L11.2581 10.0971ZM46.1281 11.7531L47.8931 7.2111C47.8701 7.2571 48.2571 6.2731 48.4811 5.6621L48.7811 7.0621L49.8081 11.7481H46.1321L46.1281 11.7531Z" fill="white"/>
</svg>
